<?xml version="1.0" encoding="UTF-8" standalone="no"?><!DOCTYPE svg PUBLIC "-//W3C//DTD SVG 1.1//EN" "http://www.w3.org/Graphics/SVG/1.1/DTD/svg11.dtd"><svg width="100%" height="100%" viewBox="0 0 760 247" version="1.1" xmlns="http://www.w3.org/2000/svg" xmlns:xlink="http://www.w3.org/1999/xlink" xml:space="preserve" xmlns:serif="http://www.serif.com/" style="fill-rule:evenodd;clip-rule:evenodd;stroke-linejoin:round;stroke-miterlimit:2;"><g><g><path d="M38.144,158.029c-4.231,-0.715 -7.858,-1.965 -10.881,-3.751c-3.022,-1.786 -5.481,-3.943 -7.377,-6.471c-1.896,-2.528 -3.284,-5.344 -4.163,-8.449c-0.879,-3.105 -1.319,-6.361 -1.319,-9.768c0,-4.561 0.715,-9.259 2.144,-14.095c1.428,-4.836 3.393,-9.466 5.893,-13.889c2.501,-4.424 5.468,-8.477 8.903,-12.159c3.434,-3.682 7.185,-6.649 11.251,-8.902c-3.242,-1.374 -5.935,-3.146 -8.078,-5.317c-2.143,-2.171 -3.819,-4.41 -5.028,-6.718c-2.913,-0.275 -5.646,-0.989 -8.202,-2.143c-2.555,-1.154 -4.863,-2.693 -6.924,-4.616c-2.061,-1.923 -3.805,-4.218 -5.234,-6.883c-1.429,-2.665 -2.446,-5.674 -3.05,-9.026c-0.165,-0.824 -0.289,-1.758 -0.371,-2.803c-0.082,-1.044 -0.124,-2.088 -0.124,-3.132l0,-1.442c0,-0.522 0.028,-1.003 0.083,-1.443c0.165,-2.308 0.494,-4.671 0.989,-7.089c0.495,-2.418 1.181,-4.671 2.061,-6.759c0.879,-2.088 1.951,-3.902 3.214,-5.44c1.264,-1.539 2.748,-2.638 4.452,-3.298c1.373,-0.384 2.445,-0.247 3.214,0.413c0.77,0.659 1.182,1.346 1.237,2.06c-0,0.275 -0.041,0.536 -0.124,0.783c-0.082,0.248 -0.261,0.426 -0.536,0.536c-0.219,0.11 -0.48,0.165 -0.783,0.165l-0.865,0c-0.385,0 -0.632,0.028 -0.742,0.082c-0.989,0.385 -1.868,1.086 -2.638,2.102c-0.769,1.017 -1.415,2.226 -1.937,3.627c-0.522,1.402 -0.948,2.927 -1.278,4.575c-0.329,1.649 -0.522,3.325 -0.577,5.028c-0.109,0.989 -0.137,2.075 -0.082,3.256c0.055,1.182 0.165,2.267 0.33,3.256c0.494,2.253 1.209,4.479 2.143,6.677c0.934,2.198 2.074,4.231 3.421,6.1c1.346,1.868 2.857,3.476 4.533,4.822c1.676,1.346 3.476,2.239 5.399,2.679c-0.054,-0.714 -0.096,-1.498 -0.123,-2.349c-0.028,-0.852 -0.014,-1.663 0.041,-2.432c0.22,-3.572 1.058,-7.268 2.514,-11.087c1.456,-3.819 3.38,-7.556 5.77,-11.21c2.391,-3.655 5.138,-7.144 8.243,-10.469c3.105,-3.324 6.416,-6.306 9.933,-8.943c3.517,-2.638 7.144,-4.85 10.881,-6.636c3.736,-1.786 7.418,-2.981 11.045,-3.586c0.385,-0.054 0.838,-0.082 1.36,-0.082l1.278,0c5.001,0 9.246,1.113 12.735,3.338c3.49,2.226 6.334,5.111 8.532,8.656c2.198,3.544 3.791,7.501 4.781,11.869c0.989,4.369 1.456,8.697 1.401,12.983c-0.11,2.143 -0.44,4.286 -0.989,6.429c-0.55,2.144 -1.305,4.108 -2.267,5.894c-0.962,1.786 -2.13,3.311 -3.503,4.575c-1.374,1.264 -2.94,2.116 -4.699,2.555c-1.593,0.22 -3.27,0.138 -5.028,-0.247c-1.759,-0.385 -3.38,-1.085 -4.863,-2.102c-1.484,-1.017 -2.734,-2.363 -3.751,-4.039c-1.017,-1.676 -1.58,-3.696 -1.69,-6.059c-1.319,1.594 -2.953,3.284 -4.904,5.07c-1.951,1.786 -4.094,3.558 -6.43,5.317c-2.335,1.758 -4.808,3.475 -7.418,5.151c-2.611,1.677 -5.262,3.229 -7.955,4.658c0.66,1.154 1.676,2.047 3.05,2.679c1.374,0.632 2.693,1.085 3.957,1.36c0.494,0.11 1.058,0.192 1.689,0.247c0.632,0.055 1.168,0.082 1.608,0.082c0.824,0 1.593,-0.041 2.308,-0.123c0.714,-0.083 1.456,-0.179 2.225,-0.289c0.11,0 0.179,-0.013 0.207,-0.041c0.027,-0.027 0.096,-0.041 0.206,-0.041c0.11,-0 0.178,-0.014 0.206,-0.041c0.027,-0.028 0.096,-0.042 0.206,-0.042c1.044,-0.109 2.033,-0.192 2.967,-0.247c0.934,-0.055 1.786,0 2.556,0.165c1.703,0.495 2.472,1.429 2.308,2.803c-0,0.659 -0.234,1.305 -0.701,1.937c-0.467,0.632 -1.113,1.167 -1.937,1.607c-2.198,1.099 -4.561,2.693 -7.089,4.781c-2.528,2.088 -5.042,4.506 -7.542,7.254c-2.501,2.747 -4.891,5.742 -7.172,8.985c-2.28,3.242 -4.3,6.594 -6.058,10.056c-1.759,3.462 -3.16,6.924 -4.204,10.386c-1.044,3.462 -1.566,6.759 -1.566,9.892c-0,3.352 0.769,6.484 2.308,9.397c1.538,2.912 3.956,5.303 7.253,7.171c2.528,1.209 5.029,1.813 7.501,1.813c3.023,0 6.059,-0.741 9.109,-2.225c3.05,-1.484 5.962,-3.352 8.737,-5.605c2.776,-2.253 5.358,-4.713 7.749,-7.378c2.39,-2.665 4.437,-5.179 6.141,-7.542c4.121,-5.825 8.531,-12.653 13.23,-20.484c4.698,-7.831 9.795,-16.692 15.29,-26.583c1.429,-0.715 2.391,-0.88 2.885,-0.495c0.385,0.275 0.522,0.824 0.413,1.649c-5.221,9.891 -10.194,18.794 -14.92,26.707c-4.726,7.913 -9.04,14.782 -12.942,20.607c-2.747,3.957 -5.934,7.872 -9.561,11.746c-3.627,3.875 -7.515,7.323 -11.664,10.345c-4.149,3.023 -8.518,5.468 -13.106,7.336c-4.589,1.869 -9.219,2.803 -13.89,2.803c-1.868,0 -3.737,-0.165 -5.605,-0.494Zm45.336,-119.358c-0.11,0.659 -0.206,1.264 -0.288,1.813c-0.083,0.55 -0.124,1.099 -0.124,1.649c-0.11,1.813 0.069,3.585 0.536,5.316c0.467,1.731 1.14,3.229 2.019,4.493c0.88,1.264 1.924,2.253 3.133,2.967c1.209,0.715 2.528,0.989 3.956,0.825c1.484,-0.605 2.707,-1.965 3.668,-4.081c0.962,-2.115 1.47,-4.657 1.525,-7.624c0.055,-2.968 -0.123,-6.086 -0.535,-9.356c-0.413,-3.27 -1.127,-6.279 -2.144,-9.026c-1.016,-2.748 -2.418,-5.015 -4.204,-6.801c-1.785,-1.786 -3.997,-2.679 -6.635,-2.679c-1.374,0 -2.926,0.316 -4.657,0.948c-1.731,0.632 -3.559,1.553 -5.482,2.762c-3.242,2.198 -6.471,4.836 -9.685,7.913c-3.215,3.077 -6.128,6.375 -8.738,9.892c-2.61,3.517 -4.753,7.13 -6.429,10.839c-1.676,3.709 -2.597,7.268 -2.762,10.675c-0.11,0.769 -0.11,1.593 0,2.472c3.133,-1.044 6.306,-2.335 9.521,-3.874c3.215,-1.538 6.292,-3.324 9.232,-5.358c2.94,-2.033 5.66,-4.341 8.16,-6.924c2.501,-2.582 4.63,-5.495 6.389,-8.737c0.329,-0.44 0.673,-0.728 1.03,-0.866c0.357,-0.137 0.673,-0.206 0.948,-0.206c0.659,0 1.14,0.33 1.443,0.989c0.302,0.66 0.343,1.319 0.123,1.979Z" style="fill:#1b6b7d;fill-rule:nonzero;"/><path d="M143.324,25.482c1.374,-0 2.514,0.426 3.421,1.278c0.907,0.851 1.635,1.896 2.184,3.132c0.55,1.236 0.907,2.583 1.072,4.039c0.165,1.456 0.22,2.761 0.165,3.915c-0.33,3.682 -1.278,7.364 -2.844,11.046c-1.566,3.682 -3.503,7.267 -5.811,10.757c-2.308,3.489 -4.864,6.814 -7.666,9.974c-2.803,3.16 -5.633,6.031 -8.491,8.614c0,-0 -0.151,0.549 -0.453,1.648c-0.302,1.099 -0.632,2.528 -0.989,4.287c-0.357,1.758 -0.728,3.737 -1.113,5.935c-0.385,2.198 -0.687,4.368 -0.907,6.512c-0.11,0.714 -0.165,1.387 -0.165,2.019l0,1.855c0,2.638 0.358,4.863 1.072,6.677c0.714,1.813 1.978,2.72 3.792,2.72c2.253,-0 4.478,-1.017 6.677,-3.05c2.198,-2.033 4.3,-4.534 6.305,-7.501c2.006,-2.968 3.861,-6.1 5.564,-9.397c1.704,-3.297 3.188,-6.237 4.452,-8.82c0.659,-1.484 1.264,-2.775 1.813,-3.874c0.55,-1.099 0.989,-1.869 1.319,-2.308c0.22,-0.165 0.453,-0.275 0.701,-0.33c0.247,-0.055 0.453,-0.083 0.618,-0.083c0.494,0 0.893,0.152 1.195,0.454c0.302,0.302 0.563,0.673 0.783,1.113l-2.802,5.687l0.082,0c-1.154,2.473 -2.391,5.056 -3.709,7.749c-1.319,2.692 -2.707,5.33 -4.163,7.913c-1.456,2.583 -2.995,5.056 -4.616,7.419c-1.621,2.362 -3.297,4.437 -5.028,6.223c-1.731,1.786 -3.545,3.201 -5.441,4.245c-1.896,1.044 -3.86,1.566 -5.893,1.566c-2.693,0 -4.905,-0.577 -6.636,-1.731c-1.731,-1.154 -3.105,-2.651 -4.121,-4.492c-1.017,-1.841 -1.731,-3.916 -2.144,-6.224c-0.412,-2.308 -0.618,-4.643 -0.618,-7.006c0,-0.769 0,-1.525 0,-2.267c0,-0.742 0.055,-1.47 0.165,-2.184l0,0.082c0.165,-1.978 0.495,-4.451 0.989,-7.419c0.495,-2.967 1.127,-6.223 1.896,-9.767c0.769,-3.545 1.704,-7.24 2.803,-11.087c1.099,-3.847 2.335,-7.639 3.709,-11.375c1.374,-3.737 2.885,-7.295 4.534,-10.675c1.648,-3.38 3.42,-6.347 5.316,-8.902c1.896,-2.556 3.929,-4.589 6.1,-6.1c2.171,-1.511 4.465,-2.267 6.883,-2.267Zm1.154,6.512c-0.879,-0 -2.006,1.003 -3.38,3.009c-1.373,2.005 -2.857,4.753 -4.451,8.243c-1.593,3.489 -3.215,7.624 -4.863,12.405c-1.649,4.781 -3.187,9.974 -4.616,15.579c1.154,-0.989 2.734,-2.637 4.74,-4.945c2.005,-2.308 4.025,-4.96 6.058,-7.955c2.033,-2.995 3.847,-6.182 5.44,-9.562c1.594,-3.379 2.528,-6.635 2.803,-9.768c0.055,-0.714 0.082,-1.47 0.082,-2.266c0,-0.797 -0.068,-1.553 -0.206,-2.267c-0.137,-0.715 -0.343,-1.305 -0.618,-1.772c-0.275,-0.468 -0.604,-0.701 -0.989,-0.701Z" style="fill:#1b6b7d;fill-rule:nonzero;"/><path d="M156.348,62.081c0.165,-0.88 0.247,-1.649 0.247,-2.308c0,-0.605 0.055,-1.127 0.165,-1.567c0.22,-0.714 0.659,-1.14 1.319,-1.277c0.659,-0.138 1.374,-0.096 2.143,0.123c2.308,0.825 3.984,1.731 5.028,2.721c1.044,0.989 1.566,2.28 1.566,3.874c0,0.769 -0.096,1.621 -0.288,2.555c-0.192,0.934 -0.453,1.951 -0.783,3.05c-0.55,1.758 -1.168,3.888 -1.855,6.388c-0.687,2.501 -1.36,5.138 -2.019,7.914c-0.66,2.775 -1.251,5.536 -1.773,8.284c-0.522,2.747 -0.92,5.275 -1.195,7.583c-0.055,0.55 -0.096,1.14 -0.124,1.772c-0.027,0.632 -0.041,1.168 -0.041,1.608c0,1.923 0.193,3.476 0.577,4.657c0.385,1.182 1.044,1.8 1.979,1.855c0.769,-0 1.662,-0.467 2.679,-1.402c1.016,-0.934 2.102,-2.17 3.256,-3.709c1.154,-1.539 2.335,-3.283 3.544,-5.234c1.209,-1.951 2.418,-3.984 3.627,-6.1c1.209,-2.116 2.363,-4.204 3.462,-6.265c1.099,-2.06 2.088,-3.942 2.967,-5.646c0.715,-1.319 1.333,-2.487 1.855,-3.503c0.522,-1.017 1.003,-1.855 1.443,-2.514c0.549,-0.275 0.961,-0.413 1.236,-0.413c0.714,0 1.401,0.55 2.061,1.649l-0.907,1.731c-1.099,2.198 -2.335,4.685 -3.709,7.46c-1.374,2.775 -2.872,5.578 -4.493,8.408c-1.621,2.83 -3.311,5.591 -5.069,8.284c-1.759,2.693 -3.517,5.083 -5.276,7.171c-1.758,2.088 -3.517,3.765 -5.275,5.028c-1.759,1.264 -3.435,1.896 -5.028,1.896c-1.924,0 -3.531,-0.384 -4.822,-1.154c-1.292,-0.769 -2.336,-1.827 -3.133,-3.173c-0.797,-1.347 -1.36,-2.913 -1.69,-4.699c-0.329,-1.786 -0.494,-3.723 -0.494,-5.811c-0,-0.659 0.014,-1.333 0.041,-2.019c0.028,-0.687 0.069,-1.361 0.124,-2.02c0.439,-5.385 1.374,-10.675 2.802,-15.868c1.429,-5.193 2.995,-10.4 4.699,-15.62l1.154,-3.792l-0,0.083Zm14.92,-21.185c0.604,1.099 1.03,2.102 1.277,3.009c0.248,0.907 0.344,1.745 0.289,2.514c-0.165,1.868 -0.962,3.311 -2.391,4.328c-1.429,1.016 -2.912,1.525 -4.451,1.525c-1.319,-0 -2.473,-0.536 -3.462,-1.608c-0.989,-1.071 -1.429,-2.761 -1.319,-5.069c0.055,-0.879 0.247,-1.772 0.577,-2.679c0.33,-0.907 0.742,-1.717 1.237,-2.432c0.494,-0.714 1.085,-1.291 1.772,-1.731c0.687,-0.44 1.415,-0.659 2.184,-0.659c0.715,-0 1.443,0.219 2.185,0.659c0.741,0.44 1.442,1.154 2.102,2.143Z" style="fill:#1b6b7d;fill-rule:nonzero;"/><path d="M182.56,42.053c0.99,-0.88 2.157,-1.54 3.504,-1.98c1.346,-0.44 2.706,-0.66 4.08,-0.66c0.934,-0 1.841,0.109 2.72,0.329c0.879,0.22 1.649,0.577 2.308,1.072c0.66,0.494 1.195,1.14 1.607,1.937c0.413,0.797 0.619,1.745 0.619,2.844c-0,1.703 -0.385,3.654 -1.154,5.852c-0.77,2.198 -1.676,4.534 -2.72,7.007c-0.495,1.264 -1.003,2.528 -1.525,3.791c-0.522,1.264 -1.003,2.556 -1.443,3.875c2.143,3.187 4.176,6.402 6.1,9.644c1.923,3.242 3.627,6.374 5.11,9.397c1.484,3.022 2.666,5.852 3.545,8.49c0.879,2.638 1.346,4.918 1.401,6.842c1.264,-1.869 2.501,-3.819 3.71,-5.853c1.209,-2.033 2.376,-4.053 3.503,-6.058c1.126,-2.006 2.157,-3.916 3.091,-5.729c0.934,-1.814 1.731,-3.407 2.39,-4.781c0,-0.055 0.055,-0.137 0.165,-0.247c0.055,-0.055 0.083,-0.11 0.083,-0.165l0.659,-1.319l-0.082,-0c0.274,-0.55 0.535,-0.989 0.783,-1.319c0.247,-0.33 0.673,-0.495 1.277,-0.495c0.99,0 1.704,0.55 2.144,1.649l-0.495,0.989l-0.247,0.248c-0.825,1.593 -1.773,3.462 -2.844,5.605c-1.072,2.143 -2.239,4.396 -3.503,6.759c-1.264,2.363 -2.611,4.753 -4.039,7.171c-1.429,2.418 -2.885,4.726 -4.369,6.924c-1.484,2.198 -2.995,4.191 -4.534,5.976c-1.538,1.786 -3.022,3.229 -4.451,4.328c-1.319,0.934 -2.789,1.759 -4.41,2.473c-1.621,0.714 -3.283,1.319 -4.987,1.813c-1.703,0.495 -3.421,0.88 -5.152,1.154c-1.731,0.275 -3.366,0.413 -4.904,0.413c-1.814,-0 -3.504,-0.163 -5.07,-0.487c-1.566,-0.325 -2.912,-0.825 -4.039,-1.501c-1.126,-0.676 -1.992,-1.53 -2.596,-2.563c-0.605,-1.033 -0.852,-2.264 -0.742,-3.692c0.11,-0.77 0.508,-1.553 1.195,-2.35c0.687,-0.796 1.47,-1.195 2.349,-1.195c0.66,0 1.044,0.302 1.154,0.907c0.11,0.604 0.138,1.236 0.083,1.896c-0,0.879 0.206,1.593 0.618,2.143c0.412,0.549 0.962,0.962 1.649,1.236c0.686,0.275 1.442,0.453 2.266,0.535c0.825,0.082 1.649,0.096 2.473,0.042c4.396,-0.165 7.584,-1.567 9.562,-4.208c1.978,-2.641 3.05,-6.244 3.215,-10.811c-0,-1.485 -0.206,-3.149 -0.618,-4.992c-0.413,-1.842 -0.948,-3.754 -1.608,-5.734c-0.659,-1.981 -1.429,-3.934 -2.308,-5.859c-0.879,-1.926 -1.841,-3.686 -2.885,-5.282l-3.627,8.17l-2.967,-1.073l4.369,-10.315c-1.924,-2.476 -3.49,-5.364 -4.699,-8.664c-1.209,-3.301 -1.813,-6.657 -1.813,-10.068c-0,-2.641 0.453,-5.198 1.36,-7.674c0.906,-2.475 2.486,-4.621 4.739,-6.437Zm6.265,18.874c0.495,-1.209 1.03,-2.542 1.607,-3.998c0.577,-1.456 1.086,-2.844 1.525,-4.163c0.44,-1.319 0.77,-2.514 0.99,-3.586c0.219,-1.071 0.219,-1.827 -0,-2.266l0.082,-0c-0.33,-0.66 -0.687,-1.017 -1.072,-1.072c-0.494,-0.055 -1.03,0.261 -1.607,0.948c-0.577,0.687 -1.113,1.621 -1.607,2.803c-0.495,1.181 -0.907,2.514 -1.237,3.997c-0.33,1.484 -0.494,2.968 -0.494,4.452c-0,1.758 0.329,3.379 0.989,4.863l0.824,-1.978Z" style="fill:#1b6b7d;fill-rule:nonzero;"/><path d="M261.116,77.742c-0.11,0.165 -0.426,0.33 -0.948,0.495c-0.522,0.165 -0.893,0.247 -1.113,0.247c-0.66,0 -1.237,-0.33 -1.731,-0.989c0.22,-0.605 0.371,-1.168 0.453,-1.69c0.083,-0.522 0.179,-1.085 0.289,-1.69c0.055,-1.373 -0.041,-2.816 -0.289,-4.327c-0.247,-1.511 -0.7,-2.872 -1.36,-4.08c-0.659,-1.209 -1.511,-2.212 -2.555,-3.009c-1.044,-0.797 -2.308,-1.195 -3.792,-1.195c-1.923,-0 -3.874,0.755 -5.852,2.266c-1.979,1.512 -3.875,3.462 -5.688,5.853c-1.813,2.39 -3.517,5.069 -5.111,8.037c-1.593,2.967 -3.008,5.921 -4.245,8.861c-1.236,2.94 -2.239,5.701 -3.008,8.284c-0.77,2.583 -1.209,4.671 -1.319,6.265c-0.055,0.769 -0.069,1.593 -0.042,2.473c0.028,0.879 0.179,1.689 0.454,2.431c0.275,0.742 0.687,1.347 1.236,1.814c0.55,0.467 1.319,0.7 2.308,0.7c1.704,0 3.504,-0.865 5.399,-2.596c1.896,-1.731 3.737,-3.833 5.523,-6.306c1.786,-2.473 3.449,-5.069 4.987,-7.79c1.539,-2.72 2.83,-5.096 3.874,-7.13c0.165,-0.604 0.426,-1.319 0.783,-2.143c0.358,-0.824 0.481,-1.731 0.371,-2.72c-0.11,-0.769 0.193,-1.278 0.907,-1.525c0.714,-0.247 1.484,-0.398 2.308,-0.453c3.242,0.274 5.509,1.03 6.801,2.266c1.291,1.237 2.019,2.707 2.184,4.41c0.165,1.759 -0.014,3.655 -0.536,5.688c-0.522,2.033 -0.92,3.929 -1.195,5.688c-0.055,0.384 -0.151,1.016 -0.289,1.896c-0.137,0.879 -0.261,1.841 -0.371,2.885c-0.109,1.044 -0.192,2.102 -0.247,3.173c-0.055,1.072 -0.014,1.965 0.124,2.679c0.137,0.714 0.385,1.182 0.742,1.401c0.357,0.22 0.893,0.028 1.607,-0.577c1.319,-1.318 2.72,-3.036 4.204,-5.151c1.484,-2.116 2.954,-4.369 4.41,-6.76c1.456,-2.39 2.858,-4.808 4.204,-7.253c1.346,-2.446 2.569,-4.685 3.668,-6.718c0.604,-1.319 1.223,-2.569 1.855,-3.751c0.632,-1.181 1.167,-2.157 1.607,-2.926c0.385,-0.165 0.797,-0.248 1.236,-0.248c0.495,0 0.893,0.152 1.196,0.454c0.302,0.302 0.563,0.673 0.783,1.113l-0.825,1.813c-0.769,1.539 -1.662,3.325 -2.678,5.358c-1.017,2.033 -2.116,4.176 -3.298,6.43c-1.181,2.253 -2.445,4.533 -3.791,6.841c-1.347,2.308 -2.693,4.506 -4.039,6.595c-1.347,2.088 -2.721,3.997 -4.122,5.728c-1.401,1.731 -2.734,3.119 -3.998,4.163c-1.099,0.934 -2.418,1.704 -3.956,2.308c-1.539,0.605 -3.05,0.907 -4.534,0.907c-1.978,-0 -3.517,-0.701 -4.616,-2.102c-1.099,-1.401 -1.91,-3.078 -2.432,-5.028c-0.522,-1.951 -0.81,-3.971 -0.865,-6.059c-0.055,-2.088 0.027,-3.819 0.247,-5.193l0,-0.206c0,-0.028 0.028,-0.234 0.082,-0.618c-1.483,2.473 -3.118,4.877 -4.904,7.212c-1.786,2.336 -3.682,4.41 -5.688,6.224c-2.005,1.813 -4.107,3.283 -6.306,4.41c-2.198,1.126 -4.451,1.689 -6.759,1.689c-2.143,0 -3.956,-0.384 -5.44,-1.154c-1.484,-0.769 -2.665,-1.785 -3.545,-3.049c-0.879,-1.264 -1.511,-2.748 -1.895,-4.452c-0.385,-1.703 -0.577,-3.489 -0.577,-5.358c-0,-0.329 -0,-0.714 -0,-1.154c-0,-0.439 0.027,-0.851 0.082,-1.236c0.33,-2.748 1.03,-5.797 2.102,-9.15c1.072,-3.352 2.445,-6.745 4.121,-10.18c1.676,-3.434 3.614,-6.773 5.812,-10.015c2.198,-3.242 4.602,-6.113 7.212,-8.614c2.611,-2.5 5.372,-4.506 8.284,-6.017c2.913,-1.511 5.935,-2.267 9.068,-2.267c2.418,0 4.561,0.577 6.429,1.731c1.869,1.154 3.435,2.652 4.699,4.493c1.264,1.84 2.184,3.901 2.761,6.182c0.577,2.28 0.783,4.575 0.618,6.883c-0.165,1.593 -0.494,3.077 -0.989,4.451l-0.082,0.082Z" style="fill:#1b6b7d;fill-rule:nonzero;"/></g><g><path d="M345.606,93.981c-1.484,2.638 -3.132,5.399 -4.946,8.284c-1.813,2.885 -3.888,5.509 -6.223,7.872c-2.336,2.363 -5.001,4.314 -7.996,5.852c-2.995,1.539 -6.416,2.309 -10.262,2.309c-2.858,-0 -5.29,-0.605 -7.295,-1.814c-2.006,-1.209 -3.627,-2.816 -4.864,-4.822c-1.236,-2.006 -2.129,-4.314 -2.679,-6.924c-0.549,-2.61 -0.824,-5.344 -0.824,-8.202c-0,-0.714 -0,-1.415 -0,-2.102c-0,-0.687 0.055,-1.415 0.165,-2.184l-0,0.082c0.275,-3.077 0.824,-6.196 1.648,-9.355c0.825,-3.16 1.883,-6.238 3.174,-9.233c1.291,-2.995 2.789,-5.797 4.492,-8.407c1.704,-2.611 3.586,-4.905 5.647,-6.883c2.06,-1.979 4.259,-3.531 6.594,-4.658c2.336,-1.126 4.767,-1.689 7.295,-1.689c2.418,-0 4.575,0.522 6.471,1.566c1.896,1.044 3.489,2.404 4.781,4.08c1.291,1.676 2.253,3.572 2.885,5.688c0.632,2.115 0.893,4.272 0.783,6.47c-0.33,3.078 -1.429,5.908 -3.297,8.491c-1.869,2.582 -4.122,4.863 -6.76,6.841c-2.637,1.979 -5.481,3.627 -8.531,4.946c-3.05,1.319 -5.976,2.281 -8.779,2.885c-0.22,0.934 -0.398,1.896 -0.536,2.885c-0.137,0.989 -0.261,2.033 -0.37,3.132c-0.055,0.44 -0.083,0.893 -0.083,1.361l0,1.36c0,1.209 0.096,2.376 0.289,3.503c0.192,1.126 0.535,2.143 1.03,3.05c0.495,0.906 1.181,1.648 2.061,2.225c0.879,0.577 1.978,0.921 3.297,1.031c2.088,-0.055 4.066,-0.715 5.935,-1.979c1.868,-1.263 3.613,-2.816 5.234,-4.657c1.621,-1.841 3.105,-3.819 4.451,-5.935c1.347,-2.115 2.542,-4.053 3.586,-5.811l-0,0.082c1.319,-2.308 2.542,-4.574 3.668,-6.8c1.127,-2.226 2.157,-4.245 3.091,-6.059c0.44,-0.824 0.934,-1.758 1.484,-2.802c0.549,-1.044 1.044,-1.951 1.484,-2.72c0.659,-0.275 1.071,-0.413 1.236,-0.413c0.495,0 0.893,0.152 1.195,0.454c0.303,0.302 0.564,0.673 0.783,1.113l-0.824,1.813c-0.989,2.033 -2.212,4.465 -3.668,7.295c-1.456,2.83 -3.064,5.756 -4.822,8.779Zm-6.347,-29.675c-0.825,-1.593 -1.814,-2.39 -2.968,-2.39c-1.044,-0 -2.184,0.494 -3.421,1.484c-1.236,0.989 -2.472,2.28 -3.709,3.874c-1.236,1.593 -2.459,3.379 -3.668,5.358c-1.209,1.978 -2.294,3.956 -3.256,5.935c-0.962,1.978 -1.813,3.86 -2.555,5.646c-0.742,1.786 -1.25,3.256 -1.525,4.41c1.868,-0.22 4.039,-0.824 6.512,-1.814c2.473,-0.989 4.849,-2.28 7.13,-3.874c2.28,-1.593 4.245,-3.434 5.894,-5.522c1.648,-2.089 2.582,-4.369 2.802,-6.842c0.22,-2.033 -0.192,-4.122 -1.236,-6.265Z" style="fill:#1b6b7d;fill-rule:nonzero;"/></g><g><path d="M435.619,88.83c-2.583,1.373 -4.905,3.103 -6.966,5.19c-2.06,2.087 -3.668,4.586 -4.822,7.497c-0.329,0.384 -0.755,0.412 -1.277,0.082c-0.522,-0.33 -0.838,-0.741 -0.948,-1.235c0.714,-5.108 2.404,-9.447 5.069,-13.016c2.665,-3.57 5.866,-6.178 9.603,-7.826c0.11,-1.373 0.179,-2.773 0.206,-4.201c0.028,-1.428 0.069,-2.883 0.124,-4.366l0.082,-1.73c0.055,-0.275 0.083,-0.591 0.083,-0.947l-0,-0.948c-0,-0.713 0.03,-1.413 0.09,-2.1c0.06,-0.686 0.09,-1.387 0.09,-2.101c0.18,-3.899 0.449,-8.375 0.809,-13.427c-0.882,0.44 -1.929,0.893 -3.143,1.359c-1.213,0.467 -2.523,0.879 -3.929,1.236c-1.406,0.357 -2.853,0.66 -4.342,0.906c-1.489,0.247 -2.95,0.371 -4.383,0.371c-2.04,-0 -3.86,-0.426 -5.459,-1.277c-1.599,-0.852 -2.591,-2.211 -2.977,-4.077c-0.221,-0.879 -0.331,-1.813 -0.331,-2.802c-0,-2.086 0.508,-4.104 1.525,-6.054c1.017,-1.949 2.335,-3.707 3.957,-5.272c1.621,-1.565 3.434,-2.87 5.44,-3.913c2.006,-1.043 4.025,-1.702 6.058,-1.977c0.22,0 0.481,-0.014 0.784,-0.041c0.302,-0.028 0.59,-0.069 0.865,-0.124c0.44,-0.055 0.893,-0.096 1.36,-0.123c0.467,-0.028 0.921,-0.042 1.36,-0.042c2.693,0 5.289,0.454 7.79,1.36c2.5,0.906 4.767,2.348 6.8,4.324c5.55,-1.593 11.375,-3.075 17.475,-4.448c6.1,-1.373 12.282,-2.692 18.547,-3.956c4.506,-0.934 9.122,-1.923 13.848,-2.967c4.726,-1.044 9.397,-2.13 14.013,-3.256c4.616,-1.127 9.136,-2.322 13.56,-3.586c4.423,-1.264 8.586,-2.583 12.488,-3.956l-0.083,-0c0.44,-0.165 1.141,-0.426 2.102,-0.784c0.962,-0.357 1.951,-0.755 2.968,-1.195c1.016,-0.439 1.951,-0.934 2.802,-1.484c0.852,-0.549 1.388,-1.126 1.608,-1.731c0.055,-0.274 0.11,-0.522 0.165,-0.741c0.054,-0.22 0.082,-0.413 0.082,-0.577c-0,-0.275 0.027,-0.522 0.082,-0.742c0.055,-0.22 0.248,-0.385 0.577,-0.495l-0.082,0c0.33,-0.11 0.687,-0.082 1.072,0.083c0.384,0.164 0.686,0.467 0.906,0.906c0.55,0.989 0.536,2.061 -0.041,3.215c-0.577,1.154 -1.387,2.267 -2.432,3.338c-1.044,1.072 -2.157,2.02 -3.338,2.844c-1.181,0.825 -2.074,1.429 -2.679,1.814c-4.616,2.802 -9.891,5.358 -15.826,7.666c-5.935,2.308 -12.049,4.423 -18.341,6.345c-6.292,1.923 -12.515,3.639 -18.67,5.149c-6.155,1.51 -11.788,2.869 -16.898,4.078l-4.122,0.988c-2.967,0.66 -5.701,1.291 -8.201,1.895c-2.501,0.605 -4.63,1.236 -6.389,1.894c0,0.33 0.014,0.66 0.041,0.99c0.028,0.329 0.055,0.755 0.083,1.277c0.027,0.521 0.055,1.166 0.082,1.935c0.028,0.769 0.042,1.73 0.042,2.883l-0,3.666c-0,1.4 -0.028,3.048 -0.083,4.943c-0.055,1.894 -0.124,4.091 -0.206,6.59c-0.082,2.499 -0.234,5.369 -0.453,8.608l0.494,0c0.22,0 0.412,-0.027 0.577,-0.082l0.33,-0c0.11,-0 0.192,-0.028 0.247,-0.083l-0.082,0c2.583,-0.493 5.165,-1.015 7.748,-1.564c2.583,-0.549 5.07,-1.222 7.46,-2.018c2.391,-0.797 4.602,-1.73 6.636,-2.801c2.033,-1.072 3.764,-2.376 5.193,-3.914c0.274,-0.384 0.522,-0.576 0.742,-0.576c0.219,0 0.412,0.124 0.577,0.371c0.164,0.246 0.302,0.562 0.412,0.947c0.11,0.385 0.192,0.741 0.247,1.07c-0.385,2.582 -1.401,4.779 -3.05,6.591c-1.648,1.813 -3.682,3.336 -6.1,4.572c-2.418,1.236 -5.138,2.279 -8.16,3.13c-3.023,0.852 -6.1,1.607 -9.232,2.265l-2.391,0.412c-0.329,0.11 -0.659,0.206 -0.989,0.289c-0.33,0.082 -0.797,0.151 -1.401,0.206l-0,1.812c-0,0.11 -0.014,0.192 -0.041,0.247c-0.028,0.055 -0.042,0.11 -0.042,0.165l0,0.33l0.083,-0c-0.55,5.657 -1.347,11.56 -2.391,17.711c-1.044,6.151 -2.555,12.165 -4.533,18.041c-1.979,5.876 -4.52,11.45 -7.625,16.723c-3.105,5.272 -6.965,9.83 -11.581,13.675c-1.594,1.153 -3.325,2.196 -5.193,3.13c-1.869,0.934 -3.82,1.73 -5.853,2.389c-2.033,0.659 -4.121,1.181 -6.265,1.565c-2.143,0.384 -4.231,0.576 -6.264,0.576l-3.545,0c-4.616,-0.659 -8.751,-2.088 -12.405,-4.286c-3.655,-2.198 -6.746,-4.973 -9.274,-8.325c-2.527,-3.352 -4.464,-7.199 -5.811,-11.54c-1.346,-4.342 -2.019,-8.958 -2.019,-13.849c-0,-3.901 0.508,-7.775 1.525,-11.622c1.016,-3.847 2.472,-7.419 4.368,-10.716c1.896,-3.297 4.218,-6.21 6.966,-8.737c2.747,-2.528 5.852,-4.424 9.314,-5.688c1.099,-0.385 2.185,-0.646 3.256,-0.783c1.072,-0.138 2.102,-0.206 3.091,-0.206c2.583,-0 4.754,0.536 6.512,1.607c1.759,1.072 3.187,2.514 4.286,4.328c1.1,1.813 1.896,3.915 2.391,6.306c0.495,2.39 0.742,4.904 0.742,7.542c-0,1.923 -0.055,3.627 -0.165,5.11c-0.11,1.484 -0.22,2.776 -0.33,3.875l0,-0.083c-0.329,0.715 -0.673,1.237 -1.03,1.566c-0.357,0.33 -0.701,0.536 -1.03,0.619c-0.33,0.082 -0.632,0.082 -0.907,-0c-0.275,-0.083 -0.495,-0.179 -0.66,-0.289c-0.055,-0.275 -0.068,-0.536 -0.041,-0.783c0.028,-0.247 0.041,-0.508 0.041,-0.783l0,-5.276l0.083,-1.071c-0,-1.649 -0.069,-3.297 -0.206,-4.946c-0.138,-1.649 -0.454,-3.132 -0.948,-4.451c-0.495,-1.319 -1.195,-2.404 -2.102,-3.256c-0.907,-0.852 -2.13,-1.305 -3.668,-1.36c-1.374,-0.11 -2.734,0.192 -4.081,0.907c-1.346,0.714 -2.679,1.758 -3.997,3.132c-1.319,1.374 -2.569,3.009 -3.751,4.904c-1.181,1.896 -2.267,3.957 -3.256,6.183c-0.989,2.225 -1.855,4.561 -2.596,7.006c-0.742,2.446 -1.306,4.905 -1.69,7.378c-0.22,1.428 -0.357,2.61 -0.412,3.544c-0.055,0.934 -0.083,1.676 -0.083,2.226c0,3.572 0.44,6.951 1.319,10.138c0.879,3.188 2.102,5.99 3.668,8.408c1.566,2.418 3.421,4.355 5.564,5.812c2.143,1.456 4.506,2.211 7.089,2.266c3.407,-0.219 6.526,-1.139 9.356,-2.759c2.83,-1.62 5.413,-3.734 7.748,-6.343c2.336,-2.608 4.41,-5.601 6.224,-8.979c1.813,-3.377 3.42,-6.933 4.822,-10.668c1.401,-3.735 2.596,-7.551 3.585,-11.45c0.99,-3.9 1.814,-7.661 2.473,-11.286c0.88,-4.832 1.539,-9.61 1.979,-14.333l-0.165,-0.083Zm0.659,-50.571c-0.11,-1.869 -0.645,-3.229 -1.607,-4.081c-0.962,-0.851 -2.075,-1.277 -3.339,-1.277c-1.044,-0 -2.143,0.233 -3.297,0.7c-1.154,0.467 -2.253,1.127 -3.297,1.979c-1.044,0.851 -1.951,1.854 -2.72,3.008c-0.769,1.154 -1.264,2.391 -1.484,3.71c0,0.329 0.261,0.508 0.783,0.535c0.522,0.028 1.182,-0.027 1.979,-0.164c0.796,-0.138 1.676,-0.344 2.637,-0.619c0.962,-0.274 1.937,-0.549 2.927,-0.824l1.401,-0.412c1.648,-0.495 3.077,-0.962 4.286,-1.401c1.209,-0.44 1.786,-0.797 1.731,-1.072l0,-0.082Z" style="fill:#1b6b7d;fill-rule:nonzero;"/><path d="M522.499,77.742c-0.11,0.165 -0.425,0.33 -0.948,0.495c-0.522,0.165 -0.893,0.247 -1.112,0.247c-0.66,0 -1.237,-0.33 -1.731,-0.989c0.219,-0.605 0.371,-1.168 0.453,-1.69c0.082,-0.522 0.179,-1.085 0.289,-1.69c0.054,-1.373 -0.042,-2.816 -0.289,-4.327c-0.247,-1.511 -0.701,-2.872 -1.36,-4.08c-0.66,-1.209 -1.511,-2.212 -2.555,-3.009c-1.044,-0.797 -2.308,-1.195 -3.792,-1.195c-1.923,-0 -3.874,0.755 -5.853,2.266c-1.978,1.512 -3.874,3.462 -5.687,5.853c-1.814,2.39 -3.517,5.069 -5.111,8.037c-1.594,2.967 -3.009,5.921 -4.245,8.861c-1.236,2.94 -2.239,5.701 -3.009,8.284c-0.769,2.583 -1.209,4.671 -1.319,6.265c-0.055,0.769 -0.068,1.593 -0.041,2.473c0.028,0.879 0.179,1.689 0.454,2.431c0.274,0.742 0.687,1.347 1.236,1.814c0.55,0.467 1.319,0.7 2.308,0.7c1.704,0 3.503,-0.865 5.399,-2.596c1.896,-1.731 3.737,-3.833 5.523,-6.306c1.786,-2.473 3.448,-5.069 4.987,-7.79c1.539,-2.72 2.83,-5.096 3.874,-7.13c0.165,-0.604 0.426,-1.319 0.783,-2.143c0.357,-0.824 0.481,-1.731 0.371,-2.72c-0.11,-0.769 0.192,-1.278 0.907,-1.525c0.714,-0.247 1.484,-0.398 2.308,-0.453c3.242,0.274 5.509,1.03 6.8,2.266c1.292,1.237 2.02,2.707 2.185,4.41c0.165,1.759 -0.014,3.655 -0.536,5.688c-0.522,2.033 -0.921,3.929 -1.195,5.688c-0.055,0.384 -0.151,1.016 -0.289,1.896c-0.137,0.879 -0.261,1.841 -0.371,2.885c-0.11,1.044 -0.192,2.102 -0.247,3.173c-0.055,1.072 -0.014,1.965 0.124,2.679c0.137,0.714 0.384,1.182 0.741,1.401c0.358,0.22 0.893,0.028 1.608,-0.577c1.319,-1.318 2.72,-3.036 4.204,-5.151c1.483,-2.116 2.953,-4.369 4.41,-6.76c1.456,-2.39 2.857,-4.808 4.204,-7.253c1.346,-2.446 2.569,-4.685 3.668,-6.718c0.604,-1.319 1.222,-2.569 1.854,-3.751c0.632,-1.181 1.168,-2.157 1.608,-2.926c0.384,-0.165 0.797,-0.248 1.236,-0.248c0.495,0 0.893,0.152 1.195,0.454c0.303,0.302 0.564,0.673 0.784,1.113l-0.825,1.813c-0.769,1.539 -1.662,3.325 -2.679,5.358c-1.016,2.033 -2.115,4.176 -3.297,6.43c-1.181,2.253 -2.445,4.533 -3.792,6.841c-1.346,2.308 -2.692,4.506 -4.039,6.595c-1.346,2.088 -2.72,3.997 -4.121,5.728c-1.401,1.731 -2.734,3.119 -3.998,4.163c-1.099,0.934 -2.418,1.704 -3.957,2.308c-1.538,0.605 -3.05,0.907 -4.533,0.907c-1.979,-0 -3.517,-0.701 -4.616,-2.102c-1.099,-1.401 -1.91,-3.078 -2.432,-5.028c-0.522,-1.951 -0.811,-3.971 -0.865,-6.059c-0.055,-2.088 0.027,-3.819 0.247,-5.193l-0,-0.206c-0,-0.028 0.027,-0.234 0.082,-0.618c-1.483,2.473 -3.118,4.877 -4.904,7.212c-1.786,2.336 -3.682,4.41 -5.688,6.224c-2.006,1.813 -4.108,3.283 -6.306,4.41c-2.198,1.126 -4.451,1.689 -6.759,1.689c-2.143,0 -3.957,-0.384 -5.44,-1.154c-1.484,-0.769 -2.666,-1.785 -3.545,-3.049c-0.879,-1.264 -1.511,-2.748 -1.896,-4.452c-0.384,-1.703 -0.577,-3.489 -0.577,-5.358c0,-0.329 0,-0.714 0,-1.154c0,-0.439 0.028,-0.851 0.083,-1.236c0.329,-2.748 1.03,-5.797 2.102,-9.15c1.071,-3.352 2.445,-6.745 4.121,-10.18c1.676,-3.434 3.613,-6.773 5.811,-10.015c2.199,-3.242 4.603,-6.113 7.213,-8.614c2.61,-2.5 5.372,-4.506 8.284,-6.017c2.913,-1.511 5.935,-2.267 9.067,-2.267c2.418,0 4.562,0.577 6.43,1.731c1.868,1.154 3.434,2.652 4.698,4.493c1.264,1.84 2.185,3.901 2.762,6.182c0.577,2.28 0.783,4.575 0.618,6.883c-0.165,1.593 -0.495,3.077 -0.989,4.451l-0.083,0.082Z" style="fill:#1b6b7d;fill-rule:nonzero;"/><path d="M600.725,75.022c0.659,-0.714 1.278,-0.975 1.855,-0.783c0.577,0.192 1.14,0.673 1.689,1.442c-1.154,2.748 -2.926,5.963 -5.316,9.645c-2.391,3.682 -5.221,7.377 -8.491,11.087c-3.269,3.709 -6.91,7.226 -10.921,10.55c-4.012,3.325 -8.188,6.004 -12.53,8.037c-2.253,1.044 -4.739,2.006 -7.46,2.885c-2.72,0.88 -5.454,1.319 -8.201,1.319c-1.374,0 -2.72,-0.165 -4.039,-0.494c-3.133,-0.88 -5.647,-2.624 -7.543,-5.235c-1.896,-2.61 -2.734,-6.058 -2.514,-10.344c0.055,-2.418 0.385,-5.413 0.989,-8.985c0.605,-3.572 1.333,-7.433 2.185,-11.582c0.852,-4.149 1.813,-8.449 2.885,-12.9c1.071,-4.451 2.102,-8.765 3.091,-12.941c0.659,-2.858 1.305,-5.619 1.937,-8.284c0.632,-2.666 1.195,-5.111 1.69,-7.337c0.494,-2.225 0.907,-4.19 1.236,-5.893c0.33,-1.704 0.55,-3.078 0.66,-4.122c0.055,-0.934 0.041,-1.731 -0.042,-2.39c-0.082,-0.66 -0.178,-1.237 -0.288,-1.731c-0.055,-0.275 -0.096,-0.536 -0.124,-0.783c-0.027,-0.248 -0.041,-0.481 -0.041,-0.701c0.055,-0.769 0.371,-1.278 0.948,-1.525c0.577,-0.247 1.25,-0.371 2.02,-0.371c2.143,0 3.86,0.33 5.151,0.989c1.292,0.66 2.281,1.525 2.968,2.597c0.687,1.071 1.113,2.294 1.278,3.668c0.164,1.374 0.192,2.775 0.082,4.204c-0.22,2.253 -0.591,4.739 -1.113,7.46c-0.522,2.72 -1.126,5.577 -1.813,8.572c-0.687,2.995 -1.429,6.073 -2.226,9.232c-0.797,3.16 -1.607,6.279 -2.432,9.356l-0.412,1.443l-0.412,1.607c1.429,-2.143 2.968,-4.176 4.616,-6.1c1.649,-1.923 3.38,-3.613 5.193,-5.069c1.814,-1.456 3.696,-2.61 5.647,-3.462c1.951,-0.852 3.943,-1.278 5.976,-1.278c2.143,0 3.956,0.371 5.44,1.113c1.484,0.742 2.679,1.731 3.586,2.967c0.907,1.237 1.552,2.693 1.937,4.369c0.385,1.676 0.577,3.421 0.577,5.234c-0,0.44 -0.014,0.893 -0.041,1.361c-0.028,0.467 -0.069,0.92 -0.124,1.36c-0.22,2.198 -0.728,4.684 -1.525,7.459c-0.797,2.776 -1.827,5.633 -3.091,8.573c-1.264,2.94 -2.72,5.866 -4.369,8.779c-1.648,2.912 -3.434,5.605 -5.358,8.078c2.528,-1.868 5.07,-3.97 7.625,-6.306c2.555,-2.335 5.001,-4.822 7.336,-7.46c2.336,-2.637 4.506,-5.399 6.512,-8.284c2.006,-2.885 3.751,-5.866 5.235,-8.944l0.082,-0.082Zm-30.169,-10.139c-1.594,0 -3.229,0.701 -4.905,2.102c-1.676,1.401 -3.324,3.146 -4.946,5.234c-1.621,2.089 -3.173,4.342 -4.657,6.76c-1.484,2.418 -2.775,4.671 -3.874,6.759l0.082,-0.083l-0.494,1.979c-0.33,1.154 -0.687,2.528 -1.072,4.121c-0.384,1.594 -0.742,3.229 -1.071,4.905c-0.33,1.676 -0.619,3.352 -0.866,5.028c-0.247,1.676 -0.371,3.201 -0.371,4.575c0,1.539 0.165,2.789 0.495,3.75c0.33,0.962 0.962,1.443 1.896,1.443c0.659,-0 1.456,-0.247 2.39,-0.742c1.759,-0.879 3.476,-2.253 5.152,-4.121c1.676,-1.869 3.283,-3.985 4.822,-6.348c1.539,-2.363 2.968,-4.89 4.286,-7.583c1.319,-2.693 2.473,-5.303 3.462,-7.831c0.99,-2.528 1.8,-4.891 2.432,-7.089c0.632,-2.198 1.003,-4.011 1.113,-5.44c0.055,-0.769 0.069,-1.594 0.041,-2.473c-0.027,-0.879 -0.165,-1.69 -0.412,-2.432c-0.247,-0.742 -0.646,-1.346 -1.195,-1.813c-0.55,-0.467 -1.319,-0.701 -2.308,-0.701Z" style="fill:#1b6b7d;fill-rule:nonzero;"/><path d="M603.857,62.081c0.165,-0.88 0.248,-1.649 0.248,-2.308c-0,-0.605 0.055,-1.127 0.164,-1.567c0.22,-0.714 0.66,-1.14 1.319,-1.277c0.66,-0.138 1.374,-0.096 2.143,0.123c2.308,0.825 3.985,1.731 5.029,2.721c1.044,0.989 1.566,2.28 1.566,3.874c-0,0.769 -0.096,1.621 -0.289,2.555c-0.192,0.934 -0.453,1.951 -0.783,3.05c-0.549,1.758 -1.168,3.888 -1.854,6.388c-0.687,2.501 -1.361,5.138 -2.02,7.914c-0.659,2.775 -1.25,5.536 -1.772,8.284c-0.522,2.747 -0.921,5.275 -1.195,7.583c-0.055,0.55 -0.097,1.14 -0.124,1.772c-0.028,0.632 -0.041,1.168 -0.041,1.608c-0,1.923 0.192,3.476 0.577,4.657c0.384,1.182 1.044,1.8 1.978,1.855c0.769,-0 1.662,-0.467 2.679,-1.402c1.017,-0.934 2.102,-2.17 3.256,-3.709c1.154,-1.539 2.335,-3.283 3.544,-5.234c1.209,-1.951 2.418,-3.984 3.627,-6.1c1.209,-2.116 2.363,-4.204 3.462,-6.265c1.099,-2.06 2.089,-3.942 2.968,-5.646c0.714,-1.319 1.332,-2.487 1.854,-3.503c0.523,-1.017 1.003,-1.855 1.443,-2.514c0.55,-0.275 0.962,-0.413 1.236,-0.413c0.715,0 1.402,0.55 2.061,1.649l-0.907,1.731c-1.099,2.198 -2.335,4.685 -3.709,7.46c-1.374,2.775 -2.871,5.578 -4.492,8.408c-1.621,2.83 -3.311,5.591 -5.07,8.284c-1.758,2.693 -3.517,5.083 -5.275,7.171c-1.759,2.088 -3.517,3.765 -5.276,5.028c-1.758,1.264 -3.434,1.896 -5.028,1.896c-1.923,0 -3.531,-0.384 -4.822,-1.154c-1.291,-0.769 -2.335,-1.827 -3.132,-3.173c-0.797,-1.347 -1.36,-2.913 -1.69,-4.699c-0.33,-1.786 -0.495,-3.723 -0.495,-5.811c0,-0.659 0.014,-1.333 0.042,-2.019c0.027,-0.687 0.068,-1.361 0.123,-2.02c0.44,-5.385 1.374,-10.675 2.803,-15.868c1.429,-5.193 2.995,-10.4 4.698,-15.62l1.154,-3.792l0,0.083Zm14.92,-21.185c0.604,1.099 1.03,2.102 1.278,3.009c0.247,0.907 0.343,1.745 0.288,2.514c-0.165,1.868 -0.962,3.311 -2.39,4.328c-1.429,1.016 -2.913,1.525 -4.451,1.525c-1.319,-0 -2.473,-0.536 -3.463,-1.608c-0.989,-1.071 -1.428,-2.761 -1.318,-5.069c0.055,-0.879 0.247,-1.772 0.577,-2.679c0.329,-0.907 0.741,-1.717 1.236,-2.432c0.495,-0.714 1.085,-1.291 1.772,-1.731c0.687,-0.44 1.415,-0.659 2.185,-0.659c0.714,-0 1.442,0.219 2.184,0.659c0.742,0.44 1.443,1.154 2.102,2.143Z" style="fill:#1b6b7d;fill-rule:nonzero;"/><path d="M643.753,115.989c-3.132,0 -5.742,-0.838 -7.831,-2.514c-2.088,-1.676 -3.778,-3.805 -5.069,-6.388c-1.291,-2.583 -2.198,-5.44 -2.72,-8.573c-0.522,-3.132 -0.783,-6.182 -0.783,-9.149l-0,-2.432c-0,-0.797 0.055,-1.525 0.165,-2.184c0.219,-2.638 0.522,-5.083 0.906,-7.336c0.385,-2.254 0.879,-4.177 1.484,-5.771c1.099,-1.318 2.377,-2.28 3.833,-2.885c1.456,-0.604 2.954,-0.906 4.492,-0.906c0.88,-0 1.773,0.11 2.679,0.329c0.907,0.22 1.745,0.522 2.514,0.907c0.275,-2.912 0.756,-5.811 1.443,-8.696c0.687,-2.885 1.703,-5.482 3.05,-7.79c1.346,-2.308 3.105,-4.176 5.275,-5.605c2.171,-1.429 4.905,-2.143 8.202,-2.143c2.693,-0 4.987,0.563 6.883,1.69c1.896,1.126 3.462,2.651 4.698,4.575c1.237,1.923 2.144,4.203 2.721,6.841c0.577,2.638 0.865,5.468 0.865,8.49c0,1.649 -0.082,3.215 -0.247,4.699l-0,-0.083c-0.44,4.287 -1.347,8.683 -2.72,13.189c-1.374,4.506 -3.105,8.738 -5.193,12.694c2.143,-0.439 4.039,-1.25 5.687,-2.431c1.649,-1.182 3.16,-2.611 4.534,-4.287c1.374,-1.676 2.624,-3.517 3.75,-5.522c1.127,-2.006 2.212,-4.026 3.256,-6.059l1.814,-3.297c0.274,-0.11 0.536,-0.22 0.783,-0.33c0.247,-0.11 0.453,-0.165 0.618,-0.165c0.275,0 0.55,0.11 0.824,0.33c0.275,0.22 0.495,0.659 0.66,1.319c-0.934,2.198 -2.143,4.712 -3.627,7.542c-1.484,2.83 -3.242,5.509 -5.276,8.037c-2.033,2.528 -4.355,4.698 -6.965,6.512c-2.61,1.813 -5.509,2.802 -8.696,2.967c-1.429,2.144 -2.954,4.094 -4.575,5.853c-1.621,1.758 -3.366,3.27 -5.234,4.533c-1.869,1.264 -3.82,2.254 -5.853,2.968c-2.033,0.714 -4.149,1.071 -6.347,1.071Zm8.82,-42.286c0,2.308 0.137,4.726 0.412,7.254c0.275,2.528 0.811,4.877 1.608,7.048c0.796,2.17 1.895,4.039 3.297,5.605c1.401,1.566 3.256,2.569 5.564,3.009c1.044,-1.704 2.019,-3.586 2.926,-5.647c0.907,-2.061 1.717,-4.176 2.432,-6.347c0.714,-2.171 1.305,-4.396 1.772,-6.677c0.467,-2.28 0.783,-4.492 0.948,-6.635c0.11,-0.77 0.165,-1.498 0.165,-2.185l-0,-2.102c-0,-2.363 -0.206,-4.588 -0.619,-6.676c-0.412,-2.089 -1.044,-3.902 -1.895,-5.441c-0.852,-1.538 -1.951,-2.761 -3.298,-3.668c-1.346,-0.907 -2.926,-1.36 -4.739,-1.36c-1.264,0 -2.377,0.453 -3.339,1.36c-0.961,0.907 -1.772,2.13 -2.431,3.668c-0.66,1.539 -1.182,3.325 -1.566,5.358c-0.385,2.033 -0.687,4.149 -0.907,6.347c-0.11,0.989 -0.193,2.088 -0.248,3.297c-0.054,1.209 -0.082,2.473 -0.082,3.792Zm7.501,27.532c-2.748,-0.825 -5.11,-1.91 -7.089,-3.256c-1.978,-1.347 -3.627,-2.927 -4.946,-4.74c-1.318,-1.813 -2.349,-3.819 -3.091,-6.017c-0.742,-2.199 -1.25,-4.561 -1.525,-7.089c-0.164,0.879 -0.288,1.786 -0.371,2.72c-0.082,0.934 -0.178,1.868 -0.288,2.802c-0.165,1.759 -0.247,3.462 -0.247,5.111c-0,2.033 0.123,3.998 0.371,5.894c0.247,1.896 0.673,3.572 1.277,5.028c0.605,1.456 1.402,2.624 2.391,3.503c0.989,0.879 2.198,1.319 3.627,1.319c1.868,0 3.599,-0.44 5.193,-1.319c1.593,-0.879 3.159,-2.198 4.698,-3.956Z" style="fill:#1b6b7d;fill-rule:nonzero;"/></g></g><g><path d="M469.201,198.222c-3.744,0.116 -6.806,-1.1 -9.187,-3.649c-2.38,-2.55 -3.637,-5.943 -3.769,-10.179l-0.064,-2.065c-0.017,-0.529 0.212,-0.802 0.686,-0.816l5.261,-0.164c0.474,-0.015 0.719,0.242 0.736,0.772l0.052,1.668c0.076,2.435 0.681,4.364 1.817,5.787c1.136,1.422 2.556,2.106 4.263,2.053c1.706,-0.053 3.094,-0.799 4.164,-2.237c1.07,-1.438 1.57,-3.295 1.499,-5.572c-0.048,-1.536 -0.386,-2.877 -1.015,-4.023c-0.629,-1.147 -1.444,-2.168 -2.444,-3.064c-1.001,-0.897 -2.619,-2.211 -4.856,-3.943c-2.48,-1.937 -4.429,-3.599 -5.848,-4.986c-1.419,-1.387 -2.634,-3.071 -3.645,-5.054c-1.011,-1.983 -1.558,-4.324 -1.642,-7.025c-0.134,-4.289 0.897,-7.726 3.094,-10.312c2.197,-2.587 5.12,-3.937 8.769,-4.05c3.792,-0.119 6.879,1.137 9.262,3.765c2.383,2.629 3.643,6.141 3.78,10.536l0.062,1.986c0.017,0.529 -0.212,0.802 -0.686,0.816l-5.261,0.164c-0.474,0.015 -0.719,-0.242 -0.736,-0.772l-0.066,-2.144c-0.075,-2.383 -0.68,-4.286 -1.815,-5.708c-1.136,-1.422 -2.58,-2.106 -4.334,-2.051c-1.659,0.052 -2.99,0.743 -3.992,2.072c-1.002,1.33 -1.467,3.16 -1.394,5.49c0.066,2.118 0.643,3.889 1.731,5.313c1.088,1.423 3.163,3.306 6.225,5.649c2.918,2.294 5.123,4.16 6.615,5.598c1.492,1.437 2.657,3.031 3.494,4.78c0.837,1.75 1.294,3.842 1.37,6.278c0.139,4.448 -0.911,8.045 -3.15,10.792c-2.24,2.746 -5.231,4.178 -8.976,4.295Z" style="fill:#1b6b7d;fill-rule:nonzero;"/><path d="M489.373,196.956c-0.474,0.015 -0.719,-0.242 -0.736,-0.772l-1.684,-54.01c-0.017,-0.53 0.212,-0.802 0.686,-0.817l5.403,-0.168c0.474,-0.015 0.719,0.242 0.736,0.772l1.684,54.01c0.017,0.53 -0.212,0.802 -0.686,0.817l-5.403,0.168Z" style="fill:#1b6b7d;fill-rule:nonzero;"/><path d="M529.348,196.346c-3.744,0.117 -6.807,-1.1 -9.187,-3.649c-2.381,-2.55 -3.637,-5.942 -3.769,-10.179l-0.064,-2.065c-0.017,-0.529 0.212,-0.801 0.686,-0.816l5.261,-0.164c0.474,-0.015 0.719,0.242 0.736,0.772l0.052,1.668c0.076,2.436 0.681,4.365 1.817,5.787c1.135,1.422 2.556,2.107 4.263,2.053c1.706,-0.053 3.094,-0.799 4.164,-2.236c1.07,-1.438 1.57,-3.296 1.499,-5.573c-0.048,-1.535 -0.386,-2.876 -1.015,-4.023c-0.629,-1.146 -1.444,-2.168 -2.444,-3.064c-1.001,-0.896 -2.619,-2.211 -4.856,-3.943c-2.48,-1.937 -4.429,-3.599 -5.848,-4.986c-1.419,-1.386 -2.634,-3.071 -3.645,-5.054c-1.011,-1.982 -1.558,-4.324 -1.642,-7.024c-0.134,-4.289 0.897,-7.727 3.094,-10.313c2.197,-2.586 5.12,-3.936 8.769,-4.05c3.792,-0.118 6.879,1.137 9.262,3.766c2.383,2.628 3.643,6.14 3.78,10.535l0.062,1.986c0.017,0.53 -0.212,0.802 -0.686,0.817l-5.261,0.164c-0.474,0.014 -0.719,-0.243 -0.736,-0.772l-0.067,-2.145c-0.074,-2.383 -0.679,-4.285 -1.814,-5.708c-1.136,-1.422 -2.58,-2.105 -4.334,-2.051c-1.659,0.052 -2.99,0.743 -3.992,2.073c-1.002,1.329 -1.467,3.159 -1.394,5.489c0.066,2.118 0.643,3.889 1.731,5.313c1.088,1.423 3.163,3.307 6.225,5.649c2.918,2.294 5.123,4.16 6.615,5.598c1.492,1.437 2.657,3.031 3.494,4.78c0.837,1.75 1.294,3.842 1.37,6.278c0.139,4.448 -0.911,8.045 -3.151,10.792c-2.239,2.746 -5.23,4.178 -8.975,4.295Z" style="fill:#1b6b7d;fill-rule:nonzero;"/><path d="M560.012,139.021c3.649,-0.114 6.646,1.263 8.989,4.132c2.343,2.868 3.588,6.686 3.737,11.451c0.145,4.66 -0.828,8.453 -2.919,11.381c-2.091,2.927 -4.914,4.446 -8.468,4.557l-6.683,0.209c-0.19,0.006 -0.282,0.114 -0.275,0.326l0.718,23.034c0.017,0.53 -0.212,0.802 -0.686,0.817l-5.403,0.168c-0.474,0.015 -0.719,-0.242 -0.736,-0.772l-1.687,-54.09c-0.016,-0.53 0.213,-0.802 0.687,-0.817l12.726,-0.396Zm-0.274,25.45c1.943,-0.061 3.481,-0.944 4.614,-2.649c1.133,-1.705 1.655,-3.987 1.566,-6.846c-0.091,-2.912 -0.756,-5.211 -1.994,-6.895c-1.239,-1.684 -2.83,-2.495 -4.773,-2.435l-5.261,0.164c-0.19,0.006 -0.281,0.115 -0.275,0.327l0.568,18.189c0.006,0.212 0.104,0.315 0.294,0.309l5.261,-0.164Z" style="fill:#1b6b7d;fill-rule:nonzero;"/><path d="M592.41,194.379c-3.886,0.121 -7.056,-1.105 -9.508,-3.679c-2.453,-2.573 -3.747,-6.058 -3.885,-10.453l-0.864,-27.72c-0.137,-4.395 0.938,-7.966 3.224,-10.714c2.287,-2.748 5.373,-4.183 9.26,-4.304c3.934,-0.123 7.139,1.116 9.616,3.715c2.477,2.599 3.784,6.097 3.921,10.492l0.864,27.72c0.138,4.395 -0.949,7.953 -3.26,10.676c-2.311,2.722 -5.434,4.144 -9.368,4.267Zm-0.205,-6.592c1.895,-0.06 3.39,-0.808 4.484,-2.247c1.094,-1.439 1.605,-3.297 1.534,-5.574l-0.887,-28.435c-0.071,-2.277 -0.697,-4.099 -1.878,-5.467c-1.181,-1.367 -2.72,-2.022 -4.616,-1.963c-1.848,0.058 -3.308,0.806 -4.378,2.244c-1.07,1.438 -1.569,3.295 -1.498,5.572l0.887,28.435c0.071,2.277 0.685,4.1 1.842,5.468c1.158,1.369 2.661,2.024 4.51,1.967Z" style="fill:#1b6b7d;fill-rule:nonzero;"/><path d="M624.119,193.39c-3.745,0.117 -6.807,-1.099 -9.187,-3.649c-2.381,-2.549 -3.637,-5.942 -3.769,-10.178l-0.065,-2.065c-0.016,-0.53 0.212,-0.802 0.686,-0.817l5.261,-0.164c0.474,-0.015 0.72,0.243 0.736,0.772l0.052,1.668c0.076,2.436 0.682,4.365 1.817,5.787c1.136,1.422 2.557,2.107 4.263,2.054c1.707,-0.054 3.095,-0.799 4.165,-2.237c1.07,-1.438 1.569,-3.295 1.498,-5.572c-0.047,-1.536 -0.386,-2.877 -1.015,-4.023c-0.628,-1.147 -1.443,-2.168 -2.444,-3.065c-1,-0.896 -2.619,-2.21 -4.855,-3.943c-2.48,-1.937 -4.43,-3.598 -5.849,-4.985c-1.419,-1.387 -2.634,-3.072 -3.644,-5.054c-1.011,-1.983 -1.559,-4.324 -1.643,-7.025c-0.134,-4.289 0.898,-7.727 3.094,-10.313c2.197,-2.586 5.12,-3.936 8.77,-4.05c3.792,-0.118 6.879,1.137 9.262,3.766c2.383,2.629 3.643,6.141 3.78,10.536l0.062,1.985c0.016,0.53 -0.212,0.802 -0.686,0.817l-5.261,0.164c-0.474,0.015 -0.72,-0.243 -0.736,-0.772l-0.067,-2.145c-0.074,-2.382 -0.679,-4.285 -1.815,-5.707c-1.135,-1.422 -2.58,-2.106 -4.334,-2.051c-1.659,0.051 -2.989,0.742 -3.991,2.072c-1.003,1.33 -1.467,3.16 -1.395,5.49c0.066,2.118 0.643,3.889 1.731,5.312c1.089,1.424 3.164,3.307 6.226,5.65c2.918,2.294 5.123,4.16 6.615,5.597c1.492,1.438 2.656,3.031 3.494,4.781c0.837,1.749 1.294,3.842 1.37,6.278c0.138,4.448 -0.912,8.045 -3.151,10.791c-2.239,2.747 -5.231,4.178 -8.975,4.295Z" style="fill:#1b6b7d;fill-rule:nonzero;"/><path d="M663.059,191.54c-0.426,0.013 -0.694,-0.217 -0.804,-0.691l-1.849,-9.085c-0.003,-0.106 -0.041,-0.184 -0.114,-0.235c-0.073,-0.051 -0.156,-0.075 -0.251,-0.072l-11.589,0.362c-0.095,0.003 -0.177,0.032 -0.246,0.087c-0.07,0.055 -0.103,0.136 -0.099,0.241l-1.209,9.181c-0.032,0.478 -0.285,0.725 -0.759,0.739l-5.404,0.169c-0.237,0.007 -0.417,-0.067 -0.54,-0.222c-0.124,-0.155 -0.166,-0.366 -0.127,-0.632l8.909,-54.341c0.08,-0.479 0.333,-0.726 0.76,-0.739l6.327,-0.197c0.474,-0.015 0.743,0.215 0.805,0.69l12.349,53.678l0.004,0.159c0.015,0.477 -0.19,0.721 -0.617,0.735l-5.546,0.173Zm-13.952,-16.102c0.007,0.212 0.081,0.315 0.223,0.311l9.456,-0.295c0.142,-0.004 0.21,-0.113 0.203,-0.324l-5.713,-28.046c-0.051,-0.105 -0.1,-0.156 -0.148,-0.155c-0.047,0.002 -0.093,0.056 -0.137,0.164l-3.884,28.345Z" style="fill:#1b6b7d;fill-rule:nonzero;"/><path d="M692.917,135.75c-0.017,-0.529 0.212,-0.801 0.686,-0.816l5.332,-0.166c0.474,-0.015 0.719,0.242 0.736,0.772l1.684,54.01c0.017,0.53 -0.212,0.802 -0.686,0.817l-6.114,0.19c-0.379,0.012 -0.647,-0.191 -0.802,-0.611l-13.218,-35.921c-0.051,-0.104 -0.123,-0.142 -0.217,-0.112c-0.094,0.029 -0.14,0.097 -0.136,0.203l1.195,36.057c0.017,0.53 -0.212,0.802 -0.686,0.817l-5.403,0.168c-0.474,0.015 -0.719,-0.242 -0.736,-0.772l-1.684,-54.01c-0.017,-0.53 0.212,-0.802 0.686,-0.817l6.043,-0.188c0.379,-0.012 0.647,0.191 0.802,0.611l13.289,35.919c0.053,0.157 0.126,0.221 0.22,0.192c0.094,-0.03 0.138,-0.124 0.133,-0.283l-1.124,-36.06Z" style="fill:#1b6b7d;fill-rule:nonzero;"/><path d="M722.16,190.333c-3.887,0.121 -7.056,-1.105 -9.509,-3.679c-2.452,-2.574 -3.747,-6.058 -3.884,-10.453l-0.864,-27.72c-0.137,-4.395 0.937,-7.967 3.224,-10.715c2.286,-2.748 5.373,-4.182 9.259,-4.304c3.934,-0.122 7.14,1.116 9.617,3.716c2.477,2.599 3.784,6.096 3.921,10.491l0.864,27.72c0.137,4.395 -0.95,7.954 -3.261,10.676c-2.311,2.722 -5.433,4.145 -9.367,4.268Zm-0.206,-6.593c1.896,-0.059 3.391,-0.808 4.485,-2.247c1.093,-1.438 1.605,-3.296 1.534,-5.573l-0.887,-28.435c-0.071,-2.277 -0.697,-4.099 -1.878,-5.467c-1.182,-1.368 -2.72,-2.022 -4.616,-1.963c-1.849,0.058 -3.308,0.805 -4.378,2.243c-1.07,1.438 -1.57,3.296 -1.499,5.573l0.887,28.435c0.071,2.277 0.685,4.099 1.843,5.468c1.158,1.368 2.661,2.024 4.509,1.966Z" style="fill:#1b6b7d;fill-rule:nonzero;"/><path d="M745.311,170.529c-0.474,0.015 -0.719,-0.242 -0.735,-0.772l-1.75,-35.563c-0.017,-0.53 0.212,-0.802 0.686,-0.817l5.403,-0.168c0.474,-0.015 0.72,0.242 0.736,0.772l0.399,35.606c0.016,0.529 -0.212,0.801 -0.686,0.816l-4.053,0.126Zm2.629,18.125c-1.327,0.041 -2.432,-0.401 -3.315,-1.328c-0.883,-0.926 -1.347,-2.131 -1.393,-3.613c-0.048,-1.536 0.34,-2.78 1.164,-3.734c0.824,-0.953 1.9,-1.45 3.227,-1.492c1.327,-0.041 2.432,0.401 3.315,1.328c0.883,0.927 1.348,2.131 1.394,3.614c0.046,1.482 -0.342,2.714 -1.166,3.693c-0.823,0.98 -1.899,1.491 -3.226,1.532Z" style="fill:#1b6b7d;fill-rule:nonzero;"/></g></svg>